<?xml version="1.0" standalone="no"?>
<!DOCTYPE svg PUBLIC "-//W3C//DTD SVG 20010904//EN"
 "http://www.w3.org/TR/2001/REC-SVG-20010904/DTD/svg10.dtd">
<svg version="1.0" xmlns="http://www.w3.org/2000/svg"
 width="405.000000pt" height="408.000000pt" viewBox="0 0 405.000000 408.000000"
 preserveAspectRatio="xMidYMid meet">

<g transform="translate(0.000000,408.000000) scale(0.100000,-0.100000)"
fill="#000000" stroke="none">
<path d="M60 3665 l0 -335 335 0 335 0 0 335 0 335 -335 0 -335 0 0 -335z
m570 0 l0 -235 -235 0 -235 0 0 235 0 235 235 0 235 0 0 -235z"/>
<path d="M250 3665 l0 -145 145 0 145 0 0 145 0 145 -145 0 -145 0 0 -145z"/>
<path d="M920 3905 l0 -95 50 0 50 0 0 95 0 95 -50 0 -50 0 0 -95z"/>
<path d="M1210 3950 l0 -50 -50 0 -50 0 0 -45 0 -45 50 0 50 0 0 -50 0 -50
-50 0 -50 0 0 -95 0 -95 -45 0 -45 0 0 -140 0 -140 95 0 95 0 0 45 0 45 45 0
45 0 0 50 0 50 50 0 50 0 0 -95 0 -95 -50 0 -50 0 0 -50 0 -50 -45 0 -45 0 0
-50 0 -50 45 0 45 0 0 -45 0 -45 50 0 50 0 0 -95 0 -95 -50 0 -50 0 0 45 0 45
-45 0 -45 0 0 50 0 50 -50 0 -50 0 0 95 0 95 -45 0 -45 0 0 -95 0 -95 -100 0
-100 0 0 145 0 145 -140 0 -140 0 0 -100 0 -100 -50 0 -50 0 0 -140 0 -140
-45 0 -45 0 0 -50 0 -50 45 0 45 0 0 -45 0 -45 50 0 50 0 0 -50 0 -50 -50 0
-50 0 0 -95 0 -95 50 0 50 0 0 -50 0 -50 -50 0 -50 0 0 -95 0 -95 -95 0 -95 0
0 95 0 95 -45 0 -45 0 0 50 0 50 95 0 95 0 0 45 0 45 -50 0 -50 0 0 50 0 50
50 0 50 0 0 50 0 50 -50 0 -50 0 0 45 0 45 -44 0 -45 0 -3 95 -3 95 48 0 47 0
0 50 0 50 50 0 50 0 0 45 0 45 -50 0 -50 0 0 -45 0 -45 -45 0 -45 0 0 45 0 45
-50 0 -50 0 0 -45 0 -45 51 0 50 0 -3 -47 -3 -48 -47 -3 -48 -3 0 -95 0 -94
50 0 50 0 0 -45 0 -45 45 0 45 0 0 -50 0 -50 -95 0 -95 0 0 -145 0 -145 50 0
50 0 0 -95 0 -95 45 0 45 0 0 -95 0 -95 50 0 50 0 0 -190 0 -190 -50 0 -50 0
0 95 0 95 -45 0 -45 0 0 -95 0 -95 45 0 45 0 0 -50 0 -50 -95 0 -95 0 0 -241
0 -240 48 3 47 3 3 98 3 97 44 0 45 0 0 -50 0 -50 50 0 50 0 0 -50 0 -50 235
0 235 0 0 -140 0 -140 50 0 50 0 0 -50 0 -50 50 0 50 0 0 50 0 50 -50 0 -50 0
0 140 0 140 -50 0 -50 0 0 50 0 50 50 0 50 0 0 50 0 50 -95 0 -95 0 0 45 0 45
-95 0 -95 0 0 -45 0 -45 -50 0 -50 0 0 -50 0 -50 -45 0 -45 0 0 50 0 50 -50 0
-50 0 0 45 0 45 -45 0 -45 0 0 50 0 50 45 0 45 0 0 45 0 45 50 0 50 0 0 -95 0
-95 45 0 45 0 0 95 0 95 95 0 95 0 0 -45 0 -45 95 0 95 0 0 -50 0 -50 145 0
145 0 0 -45 0 -45 -45 0 -45 0 0 -50 0 -50 45 0 45 0 0 -95 0 -95 50 0 50 0 0
-95 0 -95 -50 0 -50 0 0 -95 0 -95 -45 0 -45 0 0 -50 0 -50 -100 0 -100 0 0
-95 0 -95 50 0 50 0 0 50 0 50 50 0 50 0 0 45 0 45 45 0 45 0 0 50 0 50 50 0
50 0 0 -97 0 -98 -50 3 -50 4 0 -51 0 -51 49 0 50 0 3 47 3 48 43 3 42 3 0
-50 0 -51 49 0 50 0 3 48 3 47 40 0 40 0 3 -48 3 -47 49 0 49 0 3 48 3 47 45
0 45 0 3 -48 3 -47 45 0 44 0 0 50 0 50 -45 0 -45 0 0 45 0 45 45 0 45 0 0 50
0 50 -45 0 -45 0 0 -50 0 -50 -50 0 -50 0 0 95 0 95 -50 0 -50 0 0 95 0 95 50
0 50 0 0 -45 0 -45 50 0 50 0 0 95 0 95 -50 0 -50 0 0 285 0 285 50 0 50 0 0
-45 0 -45 140 0 140 0 0 -50 0 -50 -140 0 -140 0 0 -45 0 -45 45 0 45 0 0 -50
0 -50 -45 0 -45 0 0 -50 0 -50 45 0 45 0 0 -45 0 -45 95 0 95 0 0 -50 0 -50
95 0 95 0 0 -45 0 -45 -190 0 -190 0 0 -50 0 -50 95 0 95 0 0 -45 0 -45 50 0
50 0 0 -50 0 -50 -95 0 -95 0 0 -47 0 -48 95 0 95 0 0 48 0 47 95 0 95 0 0 50
0 50 -50 0 -50 0 0 95 0 95 50 0 50 0 0 95 0 95 45 0 45 0 0 -145 0 -145 50 0
50 0 0 -45 0 -45 50 0 50 0 0 95 0 95 45 0 45 0 0 -192 0 -193 -92 0 -93 0 -3
-47 -3 -48 145 0 146 0 0 51 0 50 43 -3 42 -3 3 -47 3 -48 49 0 49 0 3 48 3
47 43 3 42 3 0 -50 0 -51 50 0 50 0 0 51 0 51 48 -3 47 -3 3 47 3 47 -50 0
-51 0 0 50 0 50 50 0 50 0 0 45 0 45 95 0 95 0 0 -45 0 -45 -50 0 -50 0 0 -98
0 -97 -45 3 -45 4 0 -51 0 -51 95 0 95 0 0 145 0 145 45 0 45 0 0 -145 0 -145
145 0 145 0 0 95 0 95 45 0 45 0 0 -44 0 -44 50 -4 50 -3 0 98 0 97 -95 0 -95
0 0 45 0 45 95 0 95 0 0 50 0 50 -95 0 -95 0 0 -50 0 -50 -50 0 -50 0 0 -45 0
-45 -95 0 -95 0 0 45 0 45 50 0 50 0 0 95 0 95 45 0 45 0 0 50 0 50 50 0 50 0
0 -50 0 -50 45 0 45 0 0 95 0 95 -45 0 -45 0 0 50 0 50 44 0 45 0 3 48 3 47
48 3 47 3 0 95 0 94 -50 0 -50 0 0 45 0 45 50 0 50 0 0 49 0 50 -47 3 -48 3
-3 43 -3 42 50 0 51 0 0 100 0 101 -95 -2 -95 -1 0 -144 0 -144 -50 0 -50 0 0
-50 0 -50 -45 0 -45 0 0 145 0 145 -50 0 -50 0 0 -50 0 -50 -45 0 -45 0 0 100
0 100 95 0 95 0 0 45 0 45 -95 0 -95 0 0 -45 0 -45 -50 0 -50 0 0 190 0 190
-45 0 -45 0 0 45 0 45 140 0 140 0 0 -45 0 -45 -45 0 -45 0 0 -50 0 -50 45 0
45 0 0 -45 0 -45 50 0 50 0 0 45 0 45 45 0 45 0 0 -45 0 -45 50 0 50 0 0 -50
0 -50 45 0 45 0 0 145 0 145 -140 0 -140 0 0 45 0 45 45 0 45 0 0 50 0 50 -45
0 -45 0 0 45 0 45 95 0 95 0 0 -95 0 -95 95 0 95 0 0 94 0 95 -47 3 -48 3 -3
48 -3 47 50 0 51 0 0 50 0 50 -50 0 -50 0 0 45 0 45 50 0 50 0 0 96 0 95 -47
-3 -48 -3 -3 -42 -3 -43 -45 0 -44 0 0 -50 0 -50 -95 0 -95 0 0 50 0 50 -50 0
-50 0 0 -50 0 -50 -45 0 -45 0 0 95 0 95 -95 0 -95 0 0 -95 0 -95 -50 0 -50 0
0 95 0 95 -50 0 -50 0 0 -95 0 -95 50 0 50 0 0 -95 0 -95 -50 0 -50 0 0 50 0
50 -45 0 -45 0 0 -50 0 -50 -50 0 -50 0 0 -50 0 -50 50 0 50 0 0 -95 0 -95 95
0 95 0 0 -95 0 -95 -95 0 -95 0 0 -45 0 -45 -50 0 -50 0 0 -50 0 -50 -45 0
-45 0 0 50 0 50 -50 0 -50 0 0 45 0 45 50 0 50 0 0 50 0 50 45 0 45 0 0 95 0
95 -45 0 -45 0 0 95 0 95 -50 0 -50 0 0 50 0 50 95 0 95 0 0 45 0 45 -45 0
-45 0 0 50 0 50 95 0 95 0 0 45 0 45 -50 0 -50 0 0 50 0 50 -45 0 -45 0 0 145
0 145 -50 0 -50 0 0 95 0 95 -45 0 -45 0 0 45 0 45 -50 0 -50 0 0 50 0 50 95
0 95 0 0 -50 0 -50 95 0 95 0 0 95 0 95 -45 0 -45 0 0 -45 0 -45 -50 0 -50 0
0 190 0 190 -44 0 -45 0 -3 -47 -3 -48 -47 -3 -48 -3 0 -45 0 -44 -95 0 -95 0
0 -50 0 -50 -50 0 -50 0 0 50 0 50 -45 0 -45 0 0 45 0 45 95 0 95 0 0 50 0 50
-145 0 -145 0 0 -95 0 -95 -45 0 -45 0 0 45 0 45 -50 0 -50 0 0 50 0 50 -45 0
-45 0 0 -95 0 -95 -50 0 -50 0 0 -50 0 -50 -145 0 -145 0 0 50 0 50 95 0 95 0
0 95 0 95 -140 0 -140 0 0 -50z m90 -95 l0 -45 -45 0 -45 0 0 45 0 45 45 0 45
0 0 -45z m480 -95 l0 -50 -45 0 -45 0 0 50 0 50 45 0 45 0 0 -50z m770 0 l0
-50 -50 0 -50 0 0 -45 0 -45 -95 0 -95 0 0 45 0 45 95 0 95 0 0 50 0 50 50 0
50 0 0 -50z m-1250 -95 l0 -45 50 0 50 0 0 -50 0 -50 45 0 45 0 0 50 0 50 50
0 50 0 0 46 0 45 48 -3 47 -3 3 -42 3 -43 95 0 94 0 0 -50 0 -50 45 0 45 0 0
95 0 95 50 0 50 0 0 -95 0 -95 45 0 45 0 0 -95 0 -95 50 0 50 0 0 95 0 95 45
0 45 0 0 -139 0 -139 46 -4 c25 -2 47 -1 50 1 2 2 4 46 4 98 l0 93 50 0 50 0
0 -95 0 -95 -50 0 -50 0 0 -50 0 -50 50 0 50 0 0 -50 0 -50 45 0 45 0 0 -95 0
-95 50 0 50 0 0 -45 0 -45 -50 0 -50 0 0 -95 0 -95 -45 0 -45 0 0 -50 0 -50
45 0 45 0 0 -145 0 -145 -45 0 -45 0 0 -95 0 -95 -145 0 -145 0 0 50 0 50 -95
0 -95 0 0 -50 0 -50 45 0 45 0 0 -45 0 -45 145 0 145 0 0 -50 0 -50 145 0 145
0 0 -45 0 -45 45 0 45 0 0 45 0 45 50 0 50 0 0 -45 0 -45 45 0 45 0 0 95 0 95
50 0 50 0 0 -95 0 -95 34 0 c67 0 66 2 66 -151 l0 -139 45 0 45 0 0 45 0 45
50 0 50 0 0 -45 0 -45 45 0 45 0 0 -50 0 -50 50 0 50 0 0 -45 0 -45 95 0 95 0
0 -145 0 -145 -190 0 -190 0 0 50 0 50 95 0 95 0 0 95 0 95 -50 0 -50 0 0 -50
0 -50 -190 0 -190 0 0 50 0 50 -95 0 -95 0 0 -145 0 -145 -50 0 -50 0 0 -50 0
-50 50 0 50 0 0 -95 0 -95 95 0 95 0 0 -45 0 -45 -50 0 -50 0 0 -50 0 -50 50
0 50 0 0 -45 0 -45 -50 0 -50 0 0 -50 0 -50 -45 0 -45 0 0 -47 0 -48 -50 0
-50 0 0 48 0 47 50 0 50 0 0 50 0 50 45 0 45 0 0 45 0 45 -45 0 -45 0 0 50 0
50 -50 0 -50 0 0 95 0 95 -45 0 -45 0 0 95 0 95 -145 0 -145 0 0 -50 0 -50 50
0 50 0 0 -45 0 -45 45 0 45 0 0 -50 0 -50 -45 0 -45 0 0 -45 0 -45 -50 0 -50
0 0 45 0 45 50 0 50 0 0 50 0 50 -50 0 -50 0 0 45 0 45 -95 0 -95 0 0 100 0
100 285 0 285 0 0 95 0 95 -45 0 -45 0 0 -50 0 -50 -240 0 -240 0 0 95 0 95
-145 0 -145 0 0 50 0 50 -45 0 -45 0 0 45 0 45 95 0 95 0 0 50 0 50 -50 0 -50
0 0 51 0 50 -42 -3 -43 -4 -3 -47 -3 -47 -50 0 -49 0 0 -145 0 -145 -45 0 -45
0 0 145 0 145 45 0 45 0 0 50 0 50 -95 0 -95 0 0 -50 0 -50 -51 0 -50 0 3 48
3 47 48 3 47 3 0 95 0 94 50 0 50 0 0 45 0 45 95 0 95 0 0 50 0 50 -94 0 -95
0 -3 -47 -3 -48 -97 -3 -98 -3 0 -44 0 -45 -45 0 -45 0 0 -335 0 -335 45 0 45
0 0 -95 0 -95 -45 0 -45 0 0 -50 0 -50 45 0 45 0 0 -145 0 -145 -45 0 -45 0 0
-140 0 -140 45 0 45 0 0 -50 0 -50 50 0 50 0 0 -47 0 -48 -50 0 -50 0 0 48 0
47 -45 0 -45 0 0 -47 0 -48 -50 3 -50 4 0 44 0 44 50 0 50 0 0 50 0 50 -50 0
-50 0 0 45 0 45 -45 0 -45 0 0 50 0 50 45 0 45 0 0 140 0 140 -45 0 -45 0 0
50 0 50 -50 0 -50 0 0 50 0 50 50 0 50 0 0 -50 0 -50 45 0 45 0 0 50 0 50 50
0 50 0 0 45 0 45 -50 0 -50 0 0 50 0 50 -190 0 -190 0 0 45 0 45 50 0 50 0 0
95 0 95 -50 0 -50 0 0 -45 0 -45 -95 0 -95 0 0 -50 0 -50 -50 0 -50 0 0 50 0
50 50 0 50 0 0 45 0 45 -145 0 -145 0 0 50 0 50 50 0 50 0 0 51 0 51 -50 -4
-50 -5 0 99 0 98 50 0 50 0 0 45 0 45 95 0 95 0 0 50 0 50 -50 0 -50 0 0 45 0
45 50 0 50 0 0 50 0 50 -50 0 -50 0 0 45 0 45 -45 0 -45 0 0 50 0 50 45 0 45
0 0 50 0 50 -45 0 -45 0 0 140 0 140 45 0 45 0 0 50 0 50 50 0 50 0 0 -50 0
-50 95 0 95 0 0 -45 0 -45 50 0 50 0 0 95 0 95 45 0 45 0 0 -95 0 -95 95 0 95
0 0 -50 0 -50 -95 0 -95 0 0 -190 0 -190 -45 0 -45 0 0 95 0 95 -50 0 -50 0 0
-95 0 -95 -50 0 -50 0 0 -95 0 -95 50 0 50 0 0 -50 0 -50 50 0 50 0 0 -45 0
-45 45 0 45 0 0 95 0 95 -45 0 -45 0 0 45 0 45 95 0 95 0 0 -190 0 -190 45 0
45 0 0 50 0 50 50 0 50 0 0 95 0 95 -50 0 -50 0 0 45 0 45 145 0 145 0 0 50 0
50 50 0 50 0 0 45 0 45 -100 0 -100 0 0 -45 0 -45 -95 0 -95 0 0 45 0 45 -45
0 -45 0 0 100 0 100 140 0 140 0 0 -50 0 -51 98 3 97 3 3 48 3 47 -50 0 -51 0
0 95 0 95 -50 0 -50 0 0 95 0 95 -45 0 -45 0 0 48 0 47 -50 -3 -50 -4 0 51 0
51 49 0 50 0 3 -47 3 -48 43 -3 42 -3 0 -45 0 -44 50 0 50 0 0 44 0 45 48 3
47 3 0 45 0 45 -98 3 -98 3 3 47 3 47 48 3 47 3 0 45 0 44 -50 0 -50 0 0 50 0
50 -45 0 -45 0 0 45 0 45 -50 0 -50 0 0 50 0 50 -45 0 -45 0 0 45 0 45 45 0
45 0 0 -45z m-90 -240 l0 -95 -50 0 -50 0 0 95 0 95 50 0 50 0 0 -95z m-480
-335 l0 -50 -50 0 -50 0 0 50 0 50 50 0 50 0 0 -50z m2680 -475 l0 -45 -50 0
-50 0 0 45 0 45 50 0 50 0 0 -45z m280 -95 l0 -50 -45 0 -45 0 0 -50 0 -50
-50 0 -50 0 0 -45 0 -45 -45 0 -45 0 0 45 c0 48 2 49 63 45 26 -1 27 0 27 49
l0 51 50 0 50 0 0 50 0 50 45 0 45 0 0 -50z m190 0 l0 -50 -45 0 -45 0 0 50 0
50 45 0 45 0 0 -50z m-860 -100 l0 -50 -45 0 -45 0 0 50 0 50 45 0 45 0 0 -50z
m388 3 l-3 -48 -47 -3 -48 -3 0 50 0 51 51 0 50 0 -3 -47z m-188 -148 l0 -95
-50 0 -50 0 0 95 0 95 50 0 50 0 0 -95z m380 -235 l0 -50 -50 0 -50 0 0 50 0
50 50 0 50 0 0 -50z m-2010 -670 l0 -50 -50 0 -50 0 0 50 0 50 50 0 50 0 0
-50z m2290 0 l0 -50 -45 0 -45 0 0 50 0 50 45 0 45 0 0 -50z m-1720 -430 l0
-190 -95 0 -95 0 0 45 0 45 -95 0 -95 0 0 50 0 50 50 0 50 0 0 50 0 50 45 0
45 0 0 45 0 45 95 0 95 0 0 -190z m-1430 50 l0 -50 -95 0 -95 0 0 50 0 50 95
0 95 0 0 -50z m2580 0 l0 -50 -95 0 -95 0 0 -51 0 -50 -47 3 -48 3 -3 48 -3
47 50 0 51 0 0 50 0 50 95 0 95 0 0 -50z m190 -290 l0 -140 -140 0 -140 0 0
140 0 140 140 0 140 0 0 -140z m190 95 l0 -45 -45 0 -45 0 0 45 0 45 45 0 45
0 0 -45z m-860 -380 l0 -45 -45 0 -45 0 0 45 0 45 45 0 45 0 0 -45z m960 -95
l0 -50 -50 0 -50 0 0 -47 0 -48 -45 0 -45 0 0 48 0 47 45 0 45 0 0 50 0 50 50
0 50 0 0 -50z"/>
<path d="M1780 3380 l0 -140 -44 0 -44 0 -4 -50 -3 -50 98 0 98 0 -3 -47 -3
-48 -47 -3 -48 -3 0 -140 0 -139 50 0 50 0 0 -50 0 -50 45 0 45 0 0 -45 0 -45
95 0 95 0 0 45 0 45 95 0 95 0 0 -45 0 -45 -45 0 -45 0 0 -50 0 -50 -50 0 -50
0 0 -95 0 -95 -45 0 -45 0 0 95 0 95 -50 0 -50 0 0 -50 0 -50 -45 0 -45 0 0
50 0 50 -97 0 -98 0 3 -50 4 -50 94 0 94 0 0 -95 0 -95 140 0 140 0 0 50 0 50
50 0 50 0 0 -50 0 -50 45 0 45 0 0 -45 0 -45 50 0 50 0 0 45 0 45 50 0 50 0 0
145 0 145 -50 0 -50 0 0 -50 0 -50 -95 0 -95 0 0 50 0 50 45 0 45 0 0 50 0 50
100 0 100 0 0 45 0 45 -50 0 -50 0 0 50 0 50 50 0 50 0 0 45 0 45 -50 0 -50 0
0 145 0 145 -95 0 -95 0 0 51 0 50 -47 -3 -48 -3 -3 -192 -2 -193 -45 0 -45 0
0 -45 0 -45 45 0 45 0 0 -50 0 -50 -95 0 -95 0 0 145 0 145 -45 0 -45 0 0 45
0 45 45 0 45 0 0 50 0 50 -45 0 -45 0 0 50 0 50 95 0 95 0 0 95 0 95 -50 0
-50 0 0 -50 0 -50 -45 0 -45 0 0 95 0 95 -50 0 -50 0 0 -140z m570 -385 l0
-45 -45 0 -45 0 0 45 0 45 45 0 45 0 0 -45z m-90 -190 l0 -45 -50 0 -50 0 0
45 0 45 50 0 50 0 0 -45z m190 0 l0 -45 -48 0 -48 0 -3 45 -2 45 51 0 50 0 0
-45z m0 -575 l0 -50 -50 0 -50 0 0 50 0 50 50 0 50 0 0 -50z"/>
<path d="M1590 3380 l0 -50 50 0 50 0 0 50 0 50 -50 0 -50 0 0 -50z"/>
<path d="M1590 2855 l0 -95 49 0 48 0 2 95 2 95 -51 0 -50 0 0 -95z"/>
<path d="M630 2805 l0 -45 50 0 50 0 0 45 0 45 -50 0 -50 0 0 -45z"/>
<path d="M820 2710 l0 -50 -95 0 -95 0 0 -45 0 -45 50 0 50 0 0 -50 0 -50 -50
0 -50 0 0 -50 0 -50 95 0 95 0 0 50 0 50 50 0 50 0 0 50 0 50 50 0 50 0 0 45
0 45 45 0 45 0 0 50 0 50 -45 0 -45 0 0 -50 0 -50 -50 0 -50 0 0 50 0 50 -50
0 -50 0 0 -50z"/>
<path d="M1690 2615 l0 -45 45 0 45 0 0 45 0 45 -45 0 -45 0 0 -45z"/>
<path d="M1300 2420 l0 -50 95 0 95 0 0 50 0 50 -95 0 -95 0 0 -50z"/>
<path d="M540 1850 l0 -50 95 0 95 0 0 -45 0 -45 -50 0 -50 0 0 -50 0 -50 50
0 50 0 0 -50 0 -50 95 0 94 0 3 98 3 97 93 3 92 3 0 -101 0 -100 50 0 50 0 0
-45 0 -45 45 0 45 0 0 95 0 95 -45 0 -45 0 0 95 0 95 -95 0 -95 0 0 50 0 50
-100 0 -100 0 0 -50 0 -50 -45 0 -45 0 0 50 0 50 -95 0 -95 0 0 -50z"/>
<path d="M1780 1850 l0 -50 50 0 50 0 0 50 0 50 -50 0 -50 0 0 -50z"/>
<path d="M1970 1756 l0 -44 50 -4 50 -3 0 48 0 47 -50 0 -50 0 0 -44z"/>
<path d="M2260 1755 l0 -45 45 0 45 0 0 45 0 45 -45 0 -45 0 0 -45z"/>
<path d="M2640 1660 l0 -50 -45 0 -45 0 0 -50 0 -50 45 0 45 0 0 -95 0 -95
-45 0 -45 0 0 -45 0 -45 45 0 45 0 0 45 0 45 50 0 50 0 0 50 0 50 45 0 45 0 0
95 0 95 -45 0 -45 0 0 50 0 50 -50 0 -50 0 0 -50z"/>
<path d="M3027 1703 c-4 -3 -7 -48 -7 -100 l0 -93 -45 0 -45 0 0 -45 0 -45 45
0 45 0 0 45 0 45 50 0 50 0 0 100 0 100 -43 0 c-24 0 -47 -3 -50 -7z"/>
<path d="M2260 1560 l0 -50 45 0 45 0 0 -140 0 -140 50 0 50 0 0 190 0 190
-95 0 -95 0 0 -50z"/>
<path d="M2070 1465 l0 -45 45 0 45 0 0 45 0 45 -45 0 -45 0 0 -45z"/>
<path d="M3120 1275 l0 -45 50 0 50 0 0 45 0 45 -50 0 -50 0 0 -45z"/>
<path d="M3410 1275 l0 -45 45 0 45 0 0 45 0 45 -45 0 -45 0 0 -45z"/>
<path d="M1300 890 l0 -50 50 0 50 0 0 50 0 50 -50 0 -50 0 0 -50z"/>
<path d="M3310 700 l0 -50 50 0 50 0 0 50 0 50 -50 0 -50 0 0 -50z"/>
<path d="M2830 3905 l0 -95 50 0 50 0 0 95 0 95 -50 0 -50 0 0 -95z"/>
<path d="M3120 3949 l0 -50 48 3 47 3 3 48 3 47 -50 0 -51 0 0 -51z"/>
<path d="M3310 3665 l0 -335 335 0 335 0 0 335 0 335 -335 0 -335 0 0 -335z
m570 0 l0 -235 -235 0 -235 0 0 235 0 235 235 0 235 0 0 -235z"/>
<path d="M3500 3665 l0 -145 145 0 145 0 0 145 0 145 -145 0 -145 0 0 -145z"/>
<path d="M820 3615 l0 -95 50 0 50 0 0 95 0 95 -50 0 -50 0 0 -95z"/>
<path d="M2930 3475 l0 -145 45 0 45 0 0 95 0 95 50 0 50 0 0 -95 0 -95 50 0
50 0 0 95 0 95 -50 0 -50 0 0 50 0 50 -95 0 -95 0 0 -145z"/>
<path d="M820 3380 l0 -50 50 0 50 0 0 50 0 50 -50 0 -50 0 0 -50z"/>
<path d="M2740 3380 l0 -50 45 0 45 0 0 50 0 50 -45 0 -45 0 0 -50z"/>
<path d="M60 3190 l0 -50 95 0 95 0 0 50 0 50 -95 0 -95 0 0 -50z"/>
<path d="M2830 3139 l0 -101 50 4 50 3 0 -47 0 -48 45 0 45 0 0 44 0 45 -42 3
-43 3 -3 48 -3 47 45 0 45 0 3 -47 3 -48 98 -3 97 -3 0 -44 0 -45 95 0 95 0 0
45 0 45 -50 0 -50 0 0 50 0 50 -45 0 -45 0 0 44 c0 48 -9 56 -66 56 l-34 0 0
-50 0 -50 -50 0 -50 0 0 50 0 50 -95 0 -95 0 0 -101z"/>
<path d="M3500 3140 l0 -100 50 0 50 0 0 50 0 50 45 0 45 0 0 -50 0 -50 50 0
50 0 0 -95 0 -95 45 0 45 0 0 145 0 145 -95 0 -95 0 0 50 0 50 -95 0 -95 0 0
-100z"/>
<path d="M3500 2900 l0 -50 50 0 50 0 0 50 0 50 -50 0 -50 0 0 -50z"/>
<path d="M60 1850 l0 -50 50 0 50 0 0 50 0 50 -50 0 -50 0 0 -50z"/>
<path d="M60 415 l0 -335 335 0 335 0 0 335 0 335 -335 0 -335 0 0 -335z m570
-2 l0 -238 -235 3 -235 3 0 234 0 235 235 0 235 0 0 -237z"/>
<path d="M250 415 l0 -145 145 0 145 0 0 145 0 145 -145 0 -145 0 0 -145z"/>
<path d="M2160 130 l0 -50 50 0 50 0 0 50 0 50 -50 0 -50 0 0 -50z"/>
</g>
</svg>
